Motion_pu05
version=1
nRows=8
nColumns=43
inDegrees=yes
endheader
time	pelvis_tilt	pelvis_list	pelvis_rotation	pelvis_tx	pelvis_ty	pelvis_tz	hip_flexion_r	hip_adduction_r	hip_rotation_r	knee_angle_r	ankle_angle_r	subtalar_angle_r	mtp_angle_r	hip_flexion_l	hip_adduction_l	hip_rotation_l	knee_angle_l	ankle_angle_l	subtalar_angle_l	mtp_angle_l	lumbar_extension	lumbar_bending	lumbar_rotation	neck_flexion	neck_lateral_bending	neck_rotation	arm_flex_r	arm_add_r	arm_rot_r	elbow_flex_r	pro_sup_r	wrist_flex_r	wrist_dev_r	hand_finger_flex_r	arm_flex_l	arm_add_l	arm_rot_l	elbow_flex_l	pro_sup_l	wrist_flex_l	wrist_dev_l	hand_finger_flex_l
      2.46250000	     -5.40216121	    -16.52466982	    -94.81753241	     -0.02856864	      0.97121141	      1.12342630	      1.12387958	    -12.48739419	     -9.64115287	    -95.28670026	    -11.69696912	    -17.30426227	     -6.76738602	     -1.43429924	    -17.36065031	    -13.57597875	    -89.55133886	    -14.60275000	    -14.77288934	     -4.59961295	      1.09438410	      4.67565558	      8.66240326	    -16.19939136	      3.82090833	     -6.58997224	    -71.21568911	   -145.14452294	   -167.70284774	     80.20067293	    143.23608264	     18.10323146	      0.44322961	     69.66076549	    109.58922951	    -10.30195721	      4.82049572	     70.13147197	    162.18388109	     15.50369503	      3.67341989	     70.25923146
      2.46500000	     -5.52380967	    -16.46173804	    -94.90158074	     -0.02843871	      0.96769379	      1.12253987	      1.23200084	    -12.55122722	     -9.76023072	    -95.48354336	    -11.68680254	    -17.32168801	     -6.70421018	     -1.26160955	    -17.43288583	    -13.46383578	    -89.85967007	    -14.56040698	    -14.89233248	     -4.57942690	      0.82659148	      4.91272967	      8.83820806	    -15.72325998	      3.27928125	     -6.63788419	    -69.84309732	   -145.32556974	   -166.96313289	     79.32009773	    143.19595208	     18.19238544	      0.29570135	     69.70220998	    110.44653004	    -10.31067585	      4.94058558	     69.36601291	    161.94396479	     15.23492498	      3.53094066	     70.26936369
      2.46750000	     -5.47791302	    -16.31020682	    -94.89583904	     -0.02884972	      0.96568567	      1.12268982	      1.19944706	    -12.41821410	     -9.74315134	    -95.20275500	    -11.69625514	    -17.31274044	     -6.70109858	     -1.24152508	    -17.40539549	    -13.52052773	    -89.67108560	    -14.57318938	    -14.88276939	     -4.58076691	      0.92513596	      4.80585259	      8.78718352	    -15.72860396	      3.31064842	     -6.66105357	    -69.48738700	   -145.46202169	   -166.94497358	     78.91948033	    143.20217609	     18.21035095	      0.30023306	     69.70429034	    110.76564731	    -10.20859568	      4.88865287	     69.31818602	    161.92840478	     15.18751100	      3.52791515	     70.26545472
      2.47000000	     -5.53442738	    -16.16564801	    -94.91735161	     -0.02842728	      0.96204537	      1.12305430	      1.22592451	    -12.54700071	     -9.88888877	    -95.28349913	    -11.69194772	    -17.34182379	     -6.65256279	     -1.14847555	    -17.46244193	    -13.51268718	    -89.84329150	    -14.60705630	    -14.95424378	     -4.57246240	      0.90853119	      5.07325126	      8.90330912	    -15.44931082	      3.05817764	     -6.71658218	    -68.09017214	   -145.77058170	   -165.97928461	     77.89586259	    143.14725435	     18.31882192	      0.16048578	     69.73278301	    111.64847901	    -10.27359504	      5.01872734	     68.02389615	    161.80814159	     15.02956731	      3.45544842	     70.25492615
      2.47250000	     -5.61454458	    -16.12016427	    -94.88340895	     -0.02787851	      0.95877808	      1.12219163	      1.26319641	    -12.39004781	     -9.82855840	    -95.33828580	    -11.61915852	    -17.37326698	     -6.54801001	     -0.99852785	    -17.55749143	    -13.48669491	    -90.09763600	    -14.57135036	    -15.09577471	     -4.54185238	      0.61457072	      5.32424322	      8.90364017	    -14.76604657	      2.43545195	     -6.89187985	    -66.68298674	   -146.11108015	   -165.13969501	     76.99607029	    143.03294603	     18.44101611	     -0.07995639	     69.79470129	    112.38411078	    -10.43983629	      4.97577450	     67.41920112	    161.42448543	     14.51748762	      3.20571756	     70.30322563
      2.47500000	     -5.58618605	    -15.93858389	    -94.90801015	     -0.02839483	      0.95655971	      1.12307615	      1.18206004	    -12.30839701	     -9.83248612	    -95.08218139	    -11.63417605	    -17.36621749	     -6.53559380	     -1.06080828	    -17.52571307	    -13.51768610	    -89.89365713	    -14.61062146	    -15.08769275	     -4.54300337	      0.82849061	      5.31648995	      8.84827184	    -14.80592399	      2.54452238	     -6.94200952	    -66.23592322	   -146.43179612	   -164.94191018	     76.39736621	    143.03585148	     18.47550973	     -0.08418201	     69.80106283	    112.78079699	    -10.45779337	      4.89380340	     67.00353236	    161.41138205	     14.46316992	      3.21728767	     70.30534435
      2.47750000	     -5.55846194	    -15.77246071	    -94.89992974	     -0.02847633	      0.95391152	      1.12355123	      1.13887322	    -12.31712204	     -9.93793457	    -94.94523449	    -11.62953144	    -17.38390072	     -6.51324949	     -1.02208012	    -17.52903446	    -13.59051995	    -89.80518657	    -14.67026467	    -15.09248664	     -4.54173158	      0.94474652	      5.36072754	      8.87306201	    -14.84409751	      2.51928318	     -6.96224862	    -65.46126699	   -146.66218869	   -164.43497221	     75.68040201	    143.02497447	     18.52724993	     -0.11356863	     69.80827425	    113.34832745	    -10.46732389	      5.00385716	     66.22073124	    161.37904158	     14.43055677	      3.18975303	     70.30092703
      2.48000000	     -5.62664097	    -15.68877190	    -94.96111030	     -0.02848776	      0.95066081	      1.12293356	      1.23484547	    -12.42667929	    -10.11035524	    -95.09500405	    -11.52838554	    -17.46343432	     -6.44232625	     -0.86076000	    -17.56479632	    -13.47847258	    -90.05843976	    -14.70682241	    -15.20876214	     -4.52083697	      0.74431235	      5.51836519	      9.03397623	    -14.46372981	      2.01681577	     -7.00129621	    -64.20417878	   -146.84858850	   -163.71359038	     74.82645072	    142.92431098	     18.59822373	     -0.23478455	     69.82908300	    114.20895046	    -10.51919379	      5.27396720	     65.39277826	    161.13219725	     14.21142934	      2.96858701	     70.30668543
